<?xml version="1.0" standalone="no"?>
<!DOCTYPE svg PUBLIC "-//W3C//DTD SVG 20010904//EN"
 "http://www.w3.org/TR/2001/REC-SVG-20010904/DTD/svg10.dtd">
<svg version="1.0" xmlns="http://www.w3.org/2000/svg"
 width="1024.000000pt" height="1024.000000pt" viewBox="0 0 1024.000000 1024.000000"
 preserveAspectRatio="xMidYMid meet">

<g transform="translate(0.000000,1024.000000) scale(0.100000,-0.100000)"
fill="#000000" stroke="none">
<path d="M0 5120 l0 -5120 5120 0 5120 0 0 5120 0 5120 -5120 0 -5120 0 0
-5120z m5753 1657 c68 -34 122 -93 172 -190 21 -39 70 -128 110 -197 39 -69
87 -153 105 -187 18 -35 38 -63 45 -63 6 0 83 43 170 96 86 52 160 93 163 90
6 -7 -378 -904 -398 -928 -13 -15 -21 -16 -55 -8 -22 6 -56 13 -75 16 -19 3
-60 11 -90 19 -30 7 -174 37 -320 65 -377 73 -381 74 -382 85 0 6 64 49 143
97 79 47 144 90 144 95 0 9 -200 362 -298 528 -96 161 -168 267 -214 313 -79
79 -209 151 -305 168 -99 17 -5 24 370 27 664 5 648 6 715 -26z m-1143 3 c-20
-13 -33 -13 -25 0 3 6 14 10 23 10 15 0 15 -2 2 -10z m-418 -1357 c42 -125
199 -488 288 -667 55 -109 98 -201 95 -204 -8 -8 -94 34 -234 115 -68 40 -128
70 -132 68 -7 -5 -147 -247 -262 -456 -220 -398 -266 -528 -232 -663 21 -84
11 -102 -25 -45 -33 54 -251 441 -275 489 -9 19 -53 97 -97 172 -64 110 -82
149 -91 202 -15 88 -4 125 90 311 42 83 105 206 140 275 34 68 60 127 55 131
-8 9 -171 97 -260 141 -34 17 -59 35 -55 39 5 5 157 29 338 55 182 25 384 54
450 64 66 10 136 18 156 19 33 1 36 -1 51 -46z m1494 -205 c-18 -139 -95 -333
-180 -452 -89 -125 -187 -209 -314 -269 -65 -31 -71 -32 -211 -34 -78 0 -146
-5 -151 -10 -10 -11 -30 -96 -30 -127 0 -19 -5 -26 -20 -26 -47 0 -14 176 58
315 71 134 234 275 417 359 44 20 94 43 110 51 l30 14 -35 -5 c-125 -20 -312
-91 -412 -157 -70 -47 -175 -157 -198 -209 -21 -48 -29 -35 -37 62 -11 138 39
274 130 356 107 96 251 137 527 149 157 7 228 13 265 24 56 17 58 16 51 -41z
m1339 -774 c-6 -33 -74 -169 -261 -524 -209 -396 -246 -460 -286 -495 -76 -65
-96 -68 -467 -74 l-334 -6 2 -182 c2 -118 -1 -183 -8 -183 -5 0 -85 100 -177
223 -201 267 -401 524 -415 532 -5 4 19 41 54 83 35 42 118 150 185 239 279
373 318 423 334 423 4 0 9 -80 10 -177 l3 -178 145 1 c862 4 844 3 950 56 71
35 194 164 230 239 16 35 31 71 31 79 1 10 3 9 6 -3 3 -11 2 -34 -2 -53z
m-2145 -704 c0 -372 -1 -399 -17 -393 -11 4 -12 8 -5 11 9 3 12 97 12 382 0
350 -1 380 -17 389 -16 9 -16 10 5 11 l22 0 0 -400z m-703 -387 c-20 -2 -52
-2 -70 0 -17 2 0 4 38 4 39 0 53 -2 32 -4z m86 0 c-7 -2 -19 -2 -25 0 -7 3 -2
5 12 5 14 0 19 -2 13 -5z m385 0 c-10 -2 -26 -2 -35 0 -10 3 -2 5 17 5 19 0
27 -2 18 -5z"/>
</g>
</svg>
